<svg width="19" height="13" viewBox="0 0 19 13" fill="none" xmlns="http://www.w3.org/2000/svg">
<path fill-rule="evenodd" clip-rule="evenodd" d="M5 3C5 3.55228 5.44772 4 6 4C6.55228 4 7 3.55228 7 3C7 2.44772 6.55228 2 6 2C5.44772 2 5 2.44772 5 3ZM6 0C4.68867 0 3.57385 0.841356 3.1659 2.0137C3.11194 2.00469 3.05652 2 3 2H1C0.447715 2 0 2.44772 0 3C0 3.55228 0.447715 4 1 4H3C3.05652 4 3.11194 3.99531 3.1659 3.9863C3.57385 5.15864 4.68867 6 6 6C7.65685 6 9 4.65685 9 3C9 1.34315 7.65685 0 6 0ZM11 2C10.4477 2 10 2.44772 10 3C10 3.55228 10.4477 4 11 4H18C18.5523 4 19 3.55228 19 3C19 2.44772 18.5523 2 18 2H11ZM18 11C18.5523 11 19 10.5523 19 10C19 9.44771 18.5523 9 18 9H16C15.9435 9 15.8881 9.00469 15.8341 9.0137C15.4262 7.84135 14.3113 7 13 7C11.3431 7 10 8.34315 10 10C10 11.6569 11.3431 13 13 13C14.3113 13 15.4262 12.1586 15.8341 10.9863C15.8881 10.9953 15.9435 11 16 11H18ZM9 10C9 10.5523 8.55229 11 8 11L1 11C0.447715 11 0 10.5523 0 10C0 9.44771 0.447715 9 1 9L8 9C8.55229 9 9 9.44772 9 10ZM13 9C13.5523 9 14 9.44771 14 10C14 10.5523 13.5523 11 13 11C12.4477 11 12 10.5523 12 10C12 9.44771 12.4477 9 13 9Z" fill="#7C90A0"/>
</svg>
