<svg width="25" height="24" viewBox="0 0 25 24" fill="none" xmlns="http://www.w3.org/2000/svg">
<g clip-path="url(#clip0_360_5370)">
<g clip-path="url(#clip1_360_5370)">
<path d="M4.07917 10.036C2.51654 7.90728 2.81695 4.98236 4.68423 3.11509L6.46632 1.333C7.25369 0.545626 8.53028 0.545625 9.31765 1.333L12.1777 4.19302C12.9487 4.96403 12.3666 6.40062 11.3457 6.78349C9.6137 7.43303 8.42442 8.99377 12.169 12.7383C15.9136 16.4829 17.4743 15.2936 18.1238 13.5616C18.5067 12.5407 19.9433 11.9587 20.7143 12.7297L23.5743 15.5897C24.3617 16.3771 24.3617 17.6536 23.5743 18.441L21.7922 20.2231C19.925 22.0904 17 22.3908 14.8713 20.8282C12.914 19.3914 10.5885 17.5734 8.96123 15.9461C7.33394 14.3188 5.51593 11.9933 4.07917 10.036Z" fill="#232427"/>
</g>
</g>
<defs>
<clipPath id="clip0_360_5370">
<rect width="24" height="24" fill="white" transform="translate(0.5)"/>
</clipPath>
<clipPath id="clip1_360_5370">
<rect width="24.5928" height="24.5928" fill="white" transform="translate(0.407227 -0.0927734)"/>
</clipPath>
</defs>
</svg>
