<svg width="21" height="18" viewBox="0 0 21 18" fill="none" xmlns="http://www.w3.org/2000/svg">
<path fill-rule="evenodd" clip-rule="evenodd" d="M1.63006 7.49446C7.2134 5.04837 10.9365 3.43576 12.7994 2.65663C18.1182 0.432045 19.2234 0.0456112 19.9438 0.0328509C20.1022 0.0300444 20.4565 0.0695278 20.686 0.256761C20.8797 0.414858 20.933 0.628423 20.9585 0.778316C20.984 0.928209 21.0158 1.26967 20.9906 1.53648C20.7023 4.58176 19.4552 11.9719 18.8207 15.3826C18.5522 16.8259 18.0236 17.3098 17.5118 17.3571C16.3996 17.46 15.555 16.618 14.4777 15.9079C12.7921 14.7968 11.8398 14.1052 10.2035 13.0209C8.3126 11.7679 9.53842 11.0792 10.6161 9.95369C10.8981 9.65913 15.7986 5.17702 15.8934 4.77042C15.9053 4.71956 15.9163 4.53001 15.8043 4.42992C15.6923 4.32983 15.527 4.36406 15.4078 4.39128C15.2387 4.42986 12.5458 6.21965 7.32912 9.76062C6.56476 10.2884 5.87242 10.5456 5.25211 10.5321C4.56826 10.5172 3.25283 10.1433 2.27493 9.82364C1.07551 9.43159 0.122225 9.22431 0.205234 8.55849C0.248471 8.21168 0.723412 7.85701 1.63006 7.49446Z" fill="white"/>
</svg>
