<svg width="437" height="334" viewBox="0 0 437 334" fill="none" xmlns="http://www.w3.org/2000/svg">
<g clip-path="url(#clip0_460_9335)">
<mask id="mask0_460_9335" style="mask-type:luminance" maskUnits="userSpaceOnUse" x="-22" y="-23" width="491" height="360">
<path d="M468.338 -22.7566H-21.6401V336.632H468.338V-22.7566Z" fill="white"/>
</mask>
<g mask="url(#mask0_460_9335)">
<mask id="mask1_460_9335" style="mask-type:luminance" maskUnits="userSpaceOnUse" x="-20" y="-30" width="489" height="367">
<path d="M468.338 -29.068H-19.2354V336.69H468.338V-29.068Z" fill="white"/>
</mask>
<g mask="url(#mask1_460_9335)">
<path d="M158.666 294.576C246.295 294.576 317.332 223.539 317.332 135.91C317.332 48.2808 246.295 -22.7566 158.666 -22.7566C71.0369 -22.7566 -0.000488281 48.2808 -0.000488281 135.91C-0.000488281 223.539 71.0369 294.576 158.666 294.576Z" fill="#B5E1FF"/>
<path d="M158.666 243.843C218.276 243.843 266.6 195.52 266.6 135.91C266.6 76.2998 218.276 27.9763 158.666 27.9763C99.0559 27.9763 50.7324 76.2998 50.7324 135.91C50.7324 195.52 99.0559 243.843 158.666 243.843Z" fill="#95D2FC"/>
<path d="M158.666 224.425C207.552 224.425 247.181 184.795 247.181 135.91C247.181 87.0243 207.552 47.3948 158.666 47.3948C109.781 47.3948 70.1514 87.0243 70.1514 135.91C70.1514 184.795 109.781 224.425 158.666 224.425Z" fill="#78C8F4"/>
<path d="M163.587 225.645C173.33 225.645 181.229 223.6 181.229 221.077C181.229 218.554 173.33 216.509 163.587 216.509C153.843 216.509 145.944 218.554 145.944 221.077C145.944 223.6 153.843 225.645 163.587 225.645Z" fill="#FD0602"/>
<path d="M176.868 245.686C174.439 234.505 174.941 222.922 175.458 211.492L176.36 191.797C176.528 188.055 176.696 184.283 176.288 180.575C175.783 176.009 174.421 171.585 172.894 167.254C169.979 158.974 166.445 150.925 163.475 142.663C160.787 135.182 158.57 127.54 156.836 119.782C156.689 119.118 155.204 118.598 154.534 118.724C153.864 118.851 153.317 119.326 152.866 119.839C150.01 123.049 149.56 127.756 150.065 132.021C150.57 136.286 151.931 140.436 152.168 144.722C150.383 146.138 149.536 148.686 150.251 150.847C148.7 150.52 146.497 149.723 144.916 149.819C143.335 149.916 141.715 150.493 140.69 151.704C139.789 152.774 139.44 154.204 139.257 155.593C138.989 157.628 139.008 159.691 139.314 161.721C137.511 162.211 135.425 163.669 134.734 165.403C134.392 166.274 134.254 167.213 134.331 168.145C134.407 169.078 134.696 169.982 135.175 170.786C133.09 171.182 130.784 172.929 130.514 175.036C130.243 177.142 130.886 179.243 131.599 181.248C133.085 185.427 134.909 189.478 137.054 193.36C139.705 198.169 142.851 202.725 144.895 207.82C148.802 217.596 148.373 228.5 147.871 239.026C147.792 240.703 148.73 242.41 150.02 243.486C153.672 246.512 158.206 248.275 162.943 248.511C167.65 248.736 172.988 248.343 176.868 245.686Z" fill="#FCB183"/>
<path d="M138.935 161.511L143.657 170.951C145.099 173.839 146.662 176.86 149.349 178.639C149.834 179.007 150.418 179.222 151.026 179.255C152.565 179.231 153.373 177.398 153.485 175.865C153.957 169.205 148.574 163.44 147.919 156.795" stroke="#FCB183" stroke-width="0.30055" stroke-miterlimit="10"/>
<path d="M139.389 154.697C139.138 157.063 139.29 159.454 139.837 161.769C140.393 164.047 141.463 166.124 142.737 168.123L143.69 169.659C144.009 170.182 144.309 170.762 144.568 171.279C145.091 172.352 145.644 173.383 146.221 174.407C146.521 174.908 146.834 175.399 147.158 175.88C147.495 176.352 147.856 176.806 148.234 177.245C148.629 177.676 149.049 178.082 149.494 178.462C149.921 178.867 150.453 179.144 151.029 179.264C150.399 179.327 149.766 179.181 149.226 178.85C148.677 178.558 148.158 178.214 147.675 177.822C146.722 177.021 145.888 176.088 145.199 175.051C144.521 174.034 143.908 172.976 143.362 171.883C143.086 171.33 142.851 170.834 142.548 170.329L141.64 168.781C141.006 167.73 140.448 166.635 139.969 165.505C138.537 162.073 138.33 158.252 139.383 154.685L139.389 154.697Z" fill="url(#paint0_linear_460_9335)"/>
<path d="M134.728 165.403C134.322 166.695 134.478 168.036 134.818 169.286C135.19 170.543 135.694 171.757 136.321 172.908C136.922 174.071 137.622 175.189 138.346 176.292C138.71 176.842 139.089 177.383 139.473 177.918C139.858 178.453 140.243 178.991 140.643 179.517C141.445 180.569 142.275 181.603 143.116 182.624C143.54 183.129 143.97 183.643 144.402 184.109C144.805 184.575 145.265 184.987 145.773 185.335C146.248 185.668 146.801 185.875 147.378 185.937C147.945 186.004 148.519 185.881 149.01 185.588C149.496 185.24 149.829 184.718 149.939 184.13C150.067 183.482 150.126 182.822 150.116 182.162C150.302 182.822 150.39 183.507 150.377 184.193C150.369 184.569 150.285 184.939 150.13 185.282C149.976 185.624 149.753 185.932 149.476 186.186C148.876 186.685 148.116 186.951 147.336 186.934C146.57 186.934 145.819 186.726 145.163 186.333C144.545 185.96 143.976 185.511 143.471 184.996C142.981 184.491 142.548 183.986 142.106 183.472C141.223 182.45 140.384 181.393 139.591 180.301C139.191 179.757 138.797 179.207 138.418 178.648C138.04 178.089 137.679 177.512 137.33 176.932C136.618 175.776 135.987 174.57 135.443 173.325C135.168 172.7 134.928 172.06 134.725 171.408C134.514 170.755 134.355 170.087 134.25 169.409C134.138 168.731 134.112 168.041 134.172 167.357C134.224 166.675 134.414 166.01 134.728 165.403Z" fill="url(#paint1_linear_460_9335)"/>
<path d="M130.616 174.549C130.724 176.67 131.217 178.756 132.38 180.466C132.982 181.314 133.667 182.098 134.427 182.808C134.627 183.007 134.816 183.217 134.995 183.436C135.166 183.637 135.344 183.836 135.512 184.037C135.846 184.446 136.182 184.851 136.525 185.239C137.204 186.036 137.889 186.814 138.614 187.541C138.977 187.899 139.35 188.251 139.735 188.581C140.114 188.915 140.516 189.222 140.937 189.501C141.341 189.768 141.772 189.993 142.223 190.171C142.447 190.252 142.678 190.315 142.911 190.361C143.142 190.413 143.378 190.437 143.615 190.433C144.113 190.439 144.604 190.322 145.046 190.093C145.488 189.864 145.867 189.53 146.148 189.119C146.012 189.668 145.694 190.155 145.247 190.502C144.789 190.864 144.249 191.107 143.675 191.211C143.091 191.316 142.492 191.296 141.917 191.151C141.353 191.018 140.812 190.806 140.309 190.52C139.34 189.968 138.45 189.288 137.664 188.497C136.89 187.733 136.177 186.91 135.53 186.036C135.207 185.603 134.894 185.167 134.589 184.728C134.436 184.512 134.289 184.286 134.144 184.064C134.002 183.86 133.847 183.666 133.682 183.481C133.342 183.087 132.972 182.681 132.639 182.246C132.304 181.808 132.003 181.346 131.737 180.863C131.208 179.9 130.851 178.851 130.682 177.764C130.514 176.7 130.492 175.619 130.616 174.549Z" fill="url(#paint2_linear_460_9335)"/>
<path d="M151.591 145.239C153.144 146.932 154.883 148.444 156.775 149.747C156.508 146.742 155.36 143.874 154.527 140.962C152.936 135.386 152.476 129.548 153.175 123.792C153.295 122.8 153.475 121.784 153.989 120.937C154.59 119.999 155.751 120.089 156.283 119.419C156.327 119.36 156.364 119.297 156.394 119.229C155.846 118.854 155.188 118.672 154.524 118.712C153.854 118.836 153.307 119.314 152.856 119.827C150.001 123.037 149.55 127.744 150.055 132.009C150.56 136.274 151.922 140.424 152.159 144.71C151.957 144.872 151.767 145.049 151.591 145.239Z" fill="url(#paint3_linear_460_9335)"/>
<path d="M169.784 161.195C170.358 162.316 171.286 163.6 172.02 164.862C169.288 157.417 166.147 150.135 163.466 142.663C161.058 135.956 159.027 129.118 157.383 122.184C157.305 122.827 157.494 123.909 157.635 124.723C157.99 126.773 158.391 128.815 158.838 130.849C160.682 139.072 163.326 147.095 166.733 154.803C167.697 156.96 168.714 159.091 169.784 161.195Z" fill="#FFC8AB"/>
<path d="M148.162 225.738C149.286 226.26 150.453 226.683 151.651 227.001C152.123 221.891 151.143 216.761 151.215 211.631C151.288 206.872 152.266 202.171 154.097 197.778C154.744 196.236 155.507 194.665 155.456 192.993C155.221 185.179 158.684 177.449 157.049 169.809C156.448 167.062 155.008 164.564 154.344 161.835C153.89 159.963 153.743 157.859 152.375 156.498C150.93 156.235 149.448 156.256 148.011 156.561C149.108 162.782 153.4 168.625 153.553 174.939C153.583 176.142 153.424 177.428 152.67 178.372C151.915 179.315 150.413 179.727 149.472 178.973C149.664 179.944 149.944 181.23 150.136 182.201C150.328 183.171 150.35 184.223 149.908 185.11C149.555 185.765 148.979 186.273 148.285 186.541C147.59 186.81 146.823 186.821 146.121 186.574C146.214 187.175 145.802 188.058 145.739 188.654C145.698 189.26 145.418 189.825 144.961 190.225C144.693 190.425 144.385 190.566 144.059 190.637C143.508 190.762 142.936 190.758 142.387 190.625C141.838 190.492 141.327 190.234 140.894 189.871C140.356 189.411 139.866 188.756 139.16 188.744C138.219 188.744 136.975 187.151 136.377 186.423C135.151 184.933 133.968 183.408 132.827 181.849C131.959 180.647 131.096 179.415 130.784 177.978C133.014 185.1 136.009 191.959 139.716 198.436C141.153 200.934 142.698 203.377 143.972 205.95C147.068 212.262 148.6 218.745 148.162 225.738Z" fill="url(#paint4_linear_460_9335)"/>
<path d="M175.833 178.462C176.065 172.562 172.473 167.215 168.533 162.818C164.593 158.421 160.054 154.349 157.635 148.963C156.622 146.709 156.132 144.073 154.071 142.705C152.907 142.705 151.901 143.535 151.188 144.458C150.243 145.715 149.646 147.2 149.458 148.762C149.27 150.324 149.498 151.908 150.118 153.354C151.459 156.38 151.898 159.578 153.208 162.617C154.2 164.922 155.201 167.245 155.709 169.704C157.398 177.915 153.415 186.504 155.107 194.713" fill="#FCB183"/>
<path d="M168.743 163.134C171.307 165.352 173.062 168.384 174.22 171.57C175.377 174.756 176.344 178.023 176.404 181.413C176.651 195.674 174.024 209.665 174.863 223.899C174.924 224.367 174.88 224.842 174.733 225.291C174.706 225.383 174.66 225.469 174.598 225.543C174.536 225.618 174.46 225.679 174.374 225.723C174.288 225.767 174.194 225.793 174.098 225.8C174.002 225.807 173.905 225.794 173.814 225.762C174.509 216.502 174.733 207.212 174.484 197.928C174.334 191.391 174.162 184.737 172.08 178.543C170.733 174.534 168.62 170.834 166.522 167.161L161.025 157.543C159.742 155.298 158.45 153.035 157.551 150.616C156.921 148.803 156.401 146.953 155.994 145.077C159.114 151.935 163.039 158.208 168.743 163.134Z" fill="#FFC8AB"/>
<path d="M152.483 142.807C150.725 145.476 150.65 148.969 151.464 152.061C152.279 155.154 153.89 157.964 155.345 160.81C156.799 163.657 158.143 166.659 158.35 169.851C158.702 175.375 155.645 180.509 154.701 185.967C154.211 188.828 154.314 191.76 155.002 194.58C155.158 190.243 153.932 186.006 154.62 181.72C154.831 180.418 155.188 179.141 155.429 177.846C156.045 174.465 155.852 170.987 154.864 167.696C153.863 164.39 152.084 161.354 150.728 158.163C149.373 154.971 148.435 151.418 149.225 148.046C149.754 145.84 150.719 144.229 152.483 142.807Z" fill="url(#paint5_linear_460_9335)"/>
<path d="M230.246 421.375H388.013C388.443 421.375 389.158 421.823 389.588 421.823C386.075 407.541 383.394 391.846 382.513 377.161C392.266 386.698 409.563 392.508 423.187 392.907C427.067 393.022 443.459 391.32 434.307 318.07C431.524 295.803 426.67 272.988 423.361 250.792C421.858 240.652 420.247 229.928 413.764 221.981C410.302 217.738 405.674 214.609 400.934 211.865C390.015 205.553 378.393 200.477 366.07 197.826C353.342 209.121 337.776 217.602 320.964 220.223C304.151 222.844 286.118 218.351 272.704 207.877C256.114 207.831 240.672 216.674 228.223 227.632C215.774 238.59 186.422 293.326 181.725 295.084C181.397 290.657 180.844 260.683 180.523 256.256C182.233 255.977 182.626 253.732 182.626 251.997C182.566 241.421 182.236 230.538 181.06 220.031C176.3 223.797 169.805 224.272 163.74 224.539C157.588 224.816 150.984 224.924 145.824 221.564C144.667 230.358 142.788 239.203 141.634 247.997C141.457 249.334 141.283 250.702 141.589 252.021C141.896 253.341 142.791 254.603 144.099 254.952C143.104 268.909 141.77 283.841 140.778 297.798C139.636 313.851 138.497 330.02 140.408 346C141.009 351.062 140.949 356.913 144.399 360.667C154.88 372.07 214.914 335.172 238.826 298.255C256.171 338.033 229.509 412.395 230.246 421.375Z" fill="#FF6F01"/>
<path d="M266.323 328.698C262.002 325.919 257.815 322.939 253.763 319.759C251.47 317.956 249.189 316.06 247.56 313.64C243.827 308.11 244.074 300.924 244.458 294.249C245.044 284.18 246.487 273.258 247.07 263.193C245.622 269.236 244.172 275.281 242.721 281.328C242.045 284.15 241.345 287.038 239.794 289.485C237.362 293.332 234.261 296.316 231.399 299.851C220.194 313.702 207.799 326.547 194.357 338.24C186.335 345.219 177.724 351.903 167.638 355.266C163.848 356.529 159.553 357.262 155.967 355.507C153.262 354.187 151.369 351.627 150.098 348.91C146.999 342.298 147.134 334.67 147.33 327.36C147.931 304.684 149.073 281.157 149.68 258.477C156.477 259.737 163.404 260.157 170.304 259.728C172.202 259.623 174.001 258.845 175.377 257.533C167.223 257.816 158.705 258.029 151.333 254.528C150.765 254.257 150.173 253.927 149.884 253.383C149.596 252.839 149.653 252.268 149.695 251.697C150.245 244.234 151.279 235.972 151.829 228.512C161.142 229.018 170.406 226.859 178.536 222.288C178.416 222.135 178.283 221.987 178.157 221.837C173.835 223.956 168.651 224.314 163.746 224.542C157.593 224.819 150.99 224.927 145.83 221.567C144.673 230.361 142.794 239.206 141.64 248C141.463 249.337 141.289 250.705 141.595 252.024C141.902 253.344 142.797 254.606 144.105 254.955C143.11 268.912 141.775 283.844 140.784 297.801C139.642 313.854 138.502 330.023 140.414 346.003C141.015 351.065 140.21 357.773 144.405 360.67C165.883 375.502 214.92 335.175 238.832 298.258C252.122 343.605 229.515 412.392 230.248 421.372H268.605C267.637 390.701 267.378 359.285 266.323 328.698Z" fill="#FE5003"/>
<path d="M245.54 233.637C244.038 239.095 242.508 244.896 244.08 250.338C245.162 254.089 247.611 257.251 249.49 260.686C252.39 265.971 253.962 271.881 254.07 277.908C254.13 281.497 253.685 285.217 254.972 288.568C257.039 293.978 263.044 296.873 268.767 297.789C278.138 299.292 287.65 296.933 296.847 294.595C292.555 293.128 290.509 288.31 289.334 283.928C287.307 276.358 286.368 268.539 286.547 260.704C286.743 252.133 288.143 242.942 283.927 235.476C280.524 229.465 273.744 225.218 272.524 218.414C271.893 214.889 272.824 210.927 270.94 207.895C263.958 208.138 257.199 209.927 250.803 212.749C248.669 219.505 247.401 226.944 245.54 233.637Z" fill="#FE5003"/>
<path d="M403.449 213.359C387.821 209.842 370.037 198.118 352.563 196.227C346.699 195.587 342.014 192.047 337.301 188.503C332.288 184.731 329.947 178.405 328.555 172.288C327.163 166.172 326.424 159.786 323.557 154.207C320.69 148.629 314.949 143.901 308.713 144.59C304.355 145.065 300.715 147.995 297.394 150.853C296.378 151.728 295.338 152.641 294.758 153.859C293.986 155.473 294.157 157.366 294.443 159.127C295.897 167.732 300.252 175.829 300.345 184.554C300.499 198.632 289.577 212.43 294.214 225.729C296.123 231.202 300.454 235.542 302.527 240.955C305.359 248.34 303.633 256.647 301.217 264.176C298.801 271.704 295.69 279.245 295.807 287.153C295.864 290.678 296.507 294.014 299.696 295.526C290.115 296.073 279.298 293.383 269.701 293.257C264.796 293.194 261.172 288.448 259.822 283.745C258.473 279.041 258.59 273.965 257.006 269.318C255.101 263.737 250.881 259.178 248.951 253.605C243.469 237.76 257.953 221.326 256.345 204.637C255.762 198.551 253.039 192.834 252.332 186.763C251.091 176.111 256.116 165.595 255.657 154.884C255.398 148.809 253.387 142.973 251.785 137.112C248.194 123.981 246.607 109.969 249.925 96.7662C253.243 83.563 262.049 71.2826 274.666 66.1732C289.162 60.3035 303.297 51.4613 318.931 51.2088C323.07 51.1427 327.254 51.4012 331.254 52.5312C335.438 53.7334 339.294 55.8373 343.105 57.9231C347.111 60.1201 351.135 62.3322 354.733 65.1363C363.374 71.8897 369.132 81.8469 372.264 92.3541C375.396 102.861 376.069 113.955 375.913 124.919C375.826 131.188 375.495 137.605 377.397 143.577C379.047 148.755 382.275 153.261 385.437 157.682C390.408 164.627 395.442 171.835 397.408 180.148C399.785 190.198 397.339 205.009 403.449 213.359Z" fill="url(#paint6_linear_460_9335)"/>
<path d="M345.951 182.056C347.493 186.655 349.967 191.133 353.922 193.937C357.757 196.642 362.557 197.544 367.185 198.334C363.065 208.796 352.813 215.499 342.561 220.124C330.813 225.423 317.832 228.954 305.062 227.184C292.291 225.414 276.482 219.803 271.98 207.726C280.149 206.885 289.373 207.726 292.775 201.114C293.977 198.752 293.569 195.885 293.427 193.231L292.703 179.688C292.67 179.042 292.643 178.363 292.928 177.783C293.298 177.025 294.109 176.608 294.864 176.232C298.008 174.667 301.073 172.956 304.061 171.098C309.702 167.588 315.031 163.585 320.837 160.348C326.644 157.111 333.07 154.67 339.712 154.658C346.652 154.658 344.352 160.158 343.938 164.742C343.407 170.59 344.093 176.486 345.951 182.056Z" fill="url(#paint7_linear_460_9335)"/>
<path d="M344.394 160.468C344.442 159.245 344.502 158.024 344.586 156.804C344.703 155.097 342.182 154.445 341.415 155.93C339.161 160.338 336.698 164.617 334.025 168.769C332.688 170.843 331.302 172.884 329.865 174.891C329.529 175.36 329.189 175.828 328.846 176.295C328.686 176.515 328.524 176.735 328.359 176.953L328.149 177.233C328.113 177.284 328.074 177.335 328.035 177.383C327.377 178.221 326.73 179.063 326.048 179.88C324.67 181.549 323.174 183.116 321.57 184.569C321.167 184.93 320.758 185.278 320.338 185.618L320.103 185.807L320.004 185.882C319.776 186.057 319.544 186.228 319.313 186.396C318.459 187.009 317.569 187.569 316.647 188.073C316.175 188.332 315.697 188.572 315.207 188.795L314.925 188.921L314.823 188.963C314.609 189.05 314.393 189.134 314.176 189.212C313.331 189.521 312.463 189.763 311.58 189.937C311.372 189.979 311.168 190.015 310.961 190.051L310.69 190.09H310.597C310.161 190.141 309.725 190.174 309.289 190.195C308.387 190.236 307.483 190.206 306.585 190.108L306.329 190.081C306.107 190.048 305.887 190.012 305.668 189.967C305.232 189.886 304.799 189.783 304.369 189.666C303.94 189.549 303.525 189.411 303.113 189.255L302.849 189.152L302.734 189.119L302.566 189.044L302.23 188.885C301.854 188.698 301.487 188.494 301.13 188.284C300.946 188.17 300.766 188.049 300.586 187.926L300.36 187.767C300.315 187.737 300.183 187.632 300.135 187.595L300.081 187.553L299.867 187.373C299.693 187.22 299.522 187.073 299.353 186.898C299.052 186.604 298.767 186.293 298.5 185.966L298.358 185.786L298.304 185.714C298.175 185.531 298.052 185.344 297.932 185.158C296.494 184.726 295.124 184.095 293.862 183.283C293.428 183.416 293.062 183.711 292.838 184.106C292.615 184.501 292.551 184.967 292.66 185.407C292.822 186.209 292.968 187.01 293.096 187.812C293.18 188.209 293.239 188.61 293.273 189.014C293.273 188.584 293.273 189.107 293.3 189.233C293.33 189.48 293.36 189.729 293.387 189.979C293.472 190.724 293.539 191.472 293.589 192.221C296.567 194.649 299.921 196.558 303.654 197.577C307.007 198.523 310.54 198.632 313.945 197.895C317.347 197.12 320.359 195.257 322.961 192.948C325.564 190.64 327.824 187.812 329.931 184.99C332.158 182.002 334.19 178.871 336.117 175.673C339.101 170.786 342.079 165.761 344.394 160.468Z" fill="url(#paint8_linear_460_9335)"/>
<path d="M352.716 135.751C353.287 132.063 353.672 128.348 353.987 124.63C354.144 122.758 354.288 120.885 354.423 119.013C354.602 117.058 354.683 115.095 354.664 113.131C354.556 109.597 353.401 106.306 351.529 103.327C349.747 100.49 347.39 98.0346 344.968 95.7414C339.802 90.8191 333.969 86.6478 327.641 83.3497C321.273 80.0266 314.376 77.8341 307.258 76.8698C300.015 75.8927 292.648 76.3926 285.603 78.3395C282.384 79.2412 279.199 80.5035 276.461 82.454C273.89 84.3022 271.865 86.8098 270.6 89.7123C270.318 89.738 270.049 89.8416 269.823 90.0115C269.597 90.1813 269.423 90.4107 269.319 90.6741C266.768 98.1878 266.488 106.131 267.092 113.979C267.393 117.886 267.898 121.751 268.421 125.625C268.902 129.178 269.389 132.73 269.924 136.274C271.012 143.454 272.328 150.607 274.267 157.613C276.16 164.477 278.667 171.225 282.177 177.449C285.57 183.46 290.292 188.942 296.697 191.815C299.903 193.288 303.418 193.964 306.942 193.784C310.477 193.567 313.789 192.218 316.764 190.361C319.74 188.503 322.454 186.078 325.017 183.631C327.722 181.044 330.256 178.278 332.699 175.441C337.61 169.731 342.6 163.84 346.14 157.153C349.663 150.517 351.574 143.135 352.716 135.751Z" fill="url(#paint9_linear_460_9335)"/>
<path d="M335.399 174.562C335.397 174.552 335.397 174.543 335.399 174.534C335.396 174.543 335.396 174.552 335.399 174.562Z" fill="url(#paint10_linear_460_9335)"/>
<path d="M330.821 188.188C330.821 188.287 330.855 188.389 330.873 188.488C330.827 188.419 330.785 188.35 330.737 188.281C330.764 188.251 330.791 188.218 330.821 188.188Z" fill="url(#paint11_linear_460_9335)"/>
<path d="M322.675 184.767L322.654 184.785C322.523 184.911 322.601 184.833 322.675 184.767Z" fill="url(#paint12_linear_460_9335)"/>
<path d="M314.664 200.168H314.625L314.535 200.207C314.457 200.24 314.4 200.264 314.664 200.168Z" fill="url(#paint13_linear_460_9335)"/>
<path d="M297.024 100.926L296.661 98.9693L296.961 98.8761C296.97 99.5553 296.988 100.244 297.024 100.926Z" fill="url(#paint14_linear_460_9335)"/>
<path d="M324.133 152.489C328.885 150.682 331.793 146.732 330.627 143.666C329.461 140.6 324.664 139.58 319.911 141.387C315.159 143.194 312.252 147.144 313.418 150.21C314.583 153.276 319.381 154.296 324.133 152.489Z" fill="url(#paint15_linear_460_9335)"/>
<path d="M297.448 157.685L286.878 159.163C285.901 159.299 283.082 159.692 284.137 155.857C286.68 146.619 292.381 123.016 293.078 129.196C293.078 129.202 293.902 132.294 297.448 157.685Z" fill="url(#paint16_linear_460_9335)"/>
<path d="M297.391 157.694C297.34 157.318 297.289 156.954 297.235 156.57L289.228 157.688C288.567 157.781 287.067 157.988 286.803 159.169L297.391 157.694Z" fill="#F27E3D"/>
<path d="M284.446 157.925C284.401 158.084 284.374 158.226 284.344 158.367C283.908 157.958 283.701 157.192 284.092 155.764C286.337 147.607 292.188 124.282 292.955 128.841C290.899 133.496 286.358 151.04 284.446 157.925Z" fill="#FFC7AB"/>
<path d="M282.577 122.794C278.565 118.706 268.794 119.157 267.694 119.238C267.204 119.274 267.255 122.956 268.055 122.845C272.491 122.244 277.48 125.291 278.424 125.613C279.544 126.037 280.771 126.093 281.925 125.772C282.144 125.694 282.339 125.562 282.492 125.387C282.645 125.213 282.751 125.002 282.8 124.775C283.004 124.472 283.093 124.106 283.052 123.743C283.012 123.38 282.843 123.044 282.577 122.794Z" fill="#543518"/>
<path d="M323.172 130.419C320.419 128.886 317.462 127.482 314.357 127.146C312.061 126.893 309.266 127.23 307.291 128.507C304.863 130.079 304.226 132.928 303.501 135.853C304.638 138.48 317.811 135.787 323.172 130.419Z" fill="url(#paint17_linear_460_9335)"/>
<path d="M321.652 131.302L321.598 131.36C321.584 131.289 321.555 131.222 321.515 131.163C321.474 131.103 321.422 131.053 321.361 131.014C321.301 130.976 321.233 130.949 321.162 130.937C321.091 130.926 321.018 130.928 320.948 130.945L320.816 130.987C319.987 130.87 319.157 130.743 318.325 130.623C316.515 130.043 314.646 129.665 312.753 129.496C311.626 129.381 310.488 129.492 309.404 129.821C308.345 130.195 307.381 130.797 306.579 131.585C306.187 131.956 305.816 132.349 305.47 132.763C304.904 133.32 304.414 133.95 304.012 134.636V134.657C303.988 134.702 303.958 134.744 303.934 134.789C303.796 135.032 303.67 136.102 303.967 136.379C304.839 137.19 310.426 138.182 313.928 138.182C317.174 138.182 320.239 136.012 322.454 132.15C322.827 131.492 322.148 130.74 321.652 131.302ZM306.69 133.265C306.66 133.301 306.633 133.337 306.606 133.376L306.288 133.605C306.42 133.487 306.552 133.373 306.69 133.265ZM306.33 135.423H306.369C306.362 135.447 306.357 135.471 306.354 135.495H306.231L306.33 135.423Z" fill="white"/>
<path d="M319.828 130.882C319.677 130.106 318.926 129.98 318.517 130.404C318.083 130.22 317.634 130.076 317.174 129.974C316.408 129.791 315.631 129.659 314.848 129.58C313.402 129.469 312.227 129.136 310.709 129.83C309.459 130.404 308.097 136.024 312.792 137.644C313.914 138.01 315.125 137.997 316.238 137.607C317.352 137.216 318.306 136.47 318.953 135.483C319.82 134.117 320.133 132.471 319.828 130.882Z" fill="#0061B0"/>
<path d="M317.245 131.221C317.047 130.494 316.571 129.873 315.92 129.493C315.64 129.317 315.326 129.201 314.998 129.154C314.671 129.107 314.337 129.13 314.019 129.22C313.701 129.311 313.405 129.468 313.152 129.681C312.898 129.894 312.692 130.157 312.548 130.455C312.214 131.082 312.096 131.801 312.211 132.502C312.226 132.592 312.261 132.678 312.313 132.754C312.326 132.876 312.346 132.998 312.373 133.118C312.492 133.643 312.779 134.114 313.191 134.461C313.5 134.799 313.916 135.019 314.369 135.083C314.74 135.132 315.116 135.072 315.454 134.912C315.496 134.897 315.538 134.885 315.577 134.867C316.186 134.59 316.677 134.107 316.963 133.503C317.32 132.798 317.42 131.991 317.245 131.221Z" fill="black"/>
<path d="M312.226 133.424C312.65 133.424 312.993 133.011 312.993 132.502C312.993 131.992 312.65 131.579 312.226 131.579C311.803 131.579 311.46 131.992 311.46 132.502C311.46 133.011 311.803 133.424 312.226 133.424Z" fill="white"/>
<path d="M303.372 136.006C303.729 134.892 304.27 133.846 304.971 132.91C305.675 131.957 306.543 131.137 307.535 130.488C308.037 130.164 308.575 129.897 309.137 129.692C309.693 129.481 310.265 129.312 310.847 129.187C312.01 128.937 313.201 128.836 314.39 128.886C315.573 128.941 316.749 129.093 317.907 129.34C319.055 129.568 320.164 129.872 321.255 130.136C322.33 130.417 323.432 130.582 324.543 130.629C325.669 130.672 326.793 130.491 327.849 130.097L327.909 130.202C326.946 130.928 325.802 131.373 324.603 131.489C324.004 131.558 323.401 131.576 322.8 131.543C322.205 131.501 321.613 131.427 321.026 131.321C319.86 131.113 318.748 130.783 317.654 130.476C316.575 130.157 315.468 129.939 314.348 129.824C313.233 129.716 312.11 129.748 311.003 129.92C309.897 130.08 308.829 130.435 307.847 130.969C305.875 132.126 304.346 133.91 303.504 136.036L303.372 136.006Z" fill="black"/>
<path d="M366.415 132.454C366.66 135.892 365.749 139.314 363.827 142.176C358.55 150.075 350.471 153.97 347.042 155.049C347.042 155.049 346.068 153.784 346.116 153.612C348.064 146.76 349.176 135.63 352.214 127.507C354.531 122.776 360.693 123.864 362.241 124.579C364.906 125.808 366.166 129.205 366.415 132.454Z" fill="url(#paint18_linear_460_9335)"/>
<path d="M358.827 130.076C356.452 128.679 353.293 130.413 350.24 135.041C350.002 135.402 349.14 142.811 347.706 147.415C347.297 148.728 348.367 149.774 349.47 149.152C351.847 147.795 353.995 146.071 355.833 144.043C357.636 142.068 359.334 139.754 360.041 136.971C360.708 134.245 361.174 131.462 358.827 130.076Z" fill="url(#paint19_linear_460_9335)"/>
<path d="M358.619 130.212C356.275 129.078 353.233 130.843 350.291 135.306C350.187 135.629 350.114 135.961 350.071 136.298C353.038 132.24 356.028 130.175 358.619 130.212Z" fill="#F68141"/>
<path d="M333.758 121.354C332.222 121.33 330.695 121.186 329.177 121.054C327.66 120.922 326.154 120.738 324.645 120.609C323.136 120.48 321.64 120.348 320.137 120.278C318.634 120.209 317.158 120.149 315.689 120.182C314.239 120.217 312.795 120.376 311.373 120.657C309.981 120.922 308.641 121.192 307.348 121.532C306.062 121.856 304.828 122.362 303.685 123.034C302.458 123.797 301.367 124.759 300.457 125.881L300.12 125.751C300.221 124.055 300.872 122.437 301.975 121.144C303.105 119.823 304.535 118.792 306.146 118.138C307.688 117.499 309.335 117.151 311.003 117.111C312.597 117.084 314.192 117.15 315.779 117.306C317.342 117.438 318.883 117.646 320.407 117.907C321.931 118.169 323.431 118.508 324.916 118.842C326.4 119.175 327.882 119.569 329.355 119.951C330.088 120.143 330.824 120.333 331.561 120.513C332.297 120.693 333.03 120.873 333.77 121.021L333.758 121.354Z" fill="#543518"/>
<path d="M269.674 136.003C270.908 134.398 272.495 133.098 274.312 132.204C275.496 131.627 276.806 131.221 278.12 131.345C279.638 131.538 281.03 132.288 282.027 133.448C283.014 134.61 283.755 135.96 284.206 137.416C279.773 140.028 273.581 139.318 269.674 136.003Z" fill="url(#paint20_linear_460_9335)"/>
<path d="M276.494 133.596C274.126 134.302 269.735 135.008 269.864 135.886C269.906 135.964 270.165 138.341 270.255 138.404C273.417 140.887 280.735 142.369 283.975 137.695C284.339 137.172 281.447 132.12 276.494 133.596ZM280.735 136.718C280.75 136.683 280.762 136.647 280.771 136.61L280.885 136.685L280.735 136.718Z" fill="white"/>
<path d="M282.472 135.189C281.919 134.563 281.041 134.191 280.287 133.875C278.661 133.193 276.623 133.115 275.129 134.176C274.936 134.305 274.785 134.488 274.693 134.702C273.849 135.85 274.077 137.506 274.838 138.684C275.319 139.432 275.866 140.187 276.731 140.439C281.805 141.873 283.44 136.28 282.472 135.189Z" fill="#0061B0"/>
<path d="M281.3 136.201C281.439 135.784 281.439 135.332 281.3 134.915C281.186 134.614 281.011 134.341 280.784 134.112C280.558 133.884 280.286 133.706 279.986 133.59C279.469 133.308 278.874 133.202 278.291 133.289C278.009 133.36 277.746 133.493 277.521 133.678C277.297 133.864 277.118 134.098 276.996 134.362C276.686 134.683 276.493 135.097 276.446 135.54C276.394 136.09 276.549 136.638 276.882 137.079C277.204 137.527 277.633 137.888 278.129 138.131C278.46 138.319 278.844 138.391 279.22 138.335C279.292 138.32 279.363 138.3 279.433 138.275C279.8 138.248 280.151 138.112 280.44 137.885C280.736 137.618 280.959 137.281 281.089 136.905C281.18 136.677 281.25 136.442 281.3 136.201ZM279.725 135.441C279.725 135.474 279.761 135.501 279.776 135.531L279.794 135.573C279.794 135.573 279.821 135.654 279.824 135.672C279.827 135.691 279.839 135.739 279.845 135.772C279.846 135.777 279.846 135.782 279.845 135.787V135.814C279.842 135.847 279.842 135.88 279.845 135.913V135.94L279.809 136.06C279.813 136.006 279.813 135.952 279.809 135.898C279.8 135.717 279.754 135.54 279.674 135.378L279.725 135.441ZM279.274 136.643C279.301 136.643 279.316 136.622 279.316 136.625L279.274 136.643ZM278.55 135.922C278.551 135.928 278.551 135.934 278.55 135.94C278.548 135.93 278.548 135.92 278.55 135.91V135.922ZM278.595 135.964C278.622 135.964 278.637 135.946 278.595 135.964V135.964Z" fill="black"/>
<path d="M276.311 136.737C276.815 136.737 277.224 136.327 277.224 135.823C277.224 135.318 276.815 134.909 276.311 134.909C275.806 134.909 275.397 135.318 275.397 135.823C275.397 136.327 275.806 136.737 276.311 136.737Z" fill="white"/>
<path d="M283.879 136.95C283.377 136.356 282.83 135.801 282.244 135.291C281.681 134.811 281.039 134.433 280.347 134.173C278.992 133.662 277.51 133.788 276.07 134.173C274.596 134.603 273.149 135.121 271.736 135.724C271.006 136.024 270.261 136.283 269.5 136.523C268.738 136.769 267.949 136.92 267.15 136.971C267.878 136.684 268.588 136.352 269.275 135.976C269.966 135.618 270.645 135.231 271.343 134.864C272.741 134.076 274.227 133.454 275.77 133.01C276.579 132.791 277.415 132.69 278.252 132.709C279.11 132.726 279.953 132.931 280.723 133.31C281.468 133.694 282.127 134.227 282.658 134.876C283.162 135.506 283.572 136.204 283.879 136.95Z" fill="black"/>
<path d="M311.628 162.794C314.577 173.187 305.918 177.822 302.416 177.777C292.315 177.653 287.088 169.193 289.033 168.91C303.159 166.837 311.246 161.469 311.628 162.794Z" fill="#F27E3D"/>
<path d="M310.85 163.765C312.635 166.431 309.046 176.457 301.232 176.634C291.915 176.851 287.524 169.28 289.354 169.154C303.162 168.198 310.417 163.14 310.85 163.765Z" fill="white"/>
<path d="M296.961 98.8761C324.119 89.4569 333.49 92.6968 344.589 111.148C347.649 116.233 351.003 131.227 351.586 129.313C358.012 122.226 355.677 114.754 357.297 106.748C358.279 101.918 358.682 96.8294 357.327 92.1017C355.523 85.7511 350.747 80.6598 345.584 76.5422C331.503 65.3197 313.152 59.7836 295.221 60.8265C281.365 61.6319 254.647 69.5845 267.91 87.9992C273.581 95.8556 285.699 102.783 296.961 98.8761Z" fill="url(#paint21_linear_460_9335)"/>
<path d="M268.818 105.53C266 110.165 264.684 115.558 265.049 120.97C262.563 114.533 261.158 107.728 260.892 100.833C260.694 95.7235 261.16 90.4759 263.348 85.8594C265.77 80.75 281.117 69.4944 283.043 80.6148C283.611 83.8908 280.317 89.478 278.802 92.201C276.091 97.094 271.718 100.779 268.818 105.53Z" fill="url(#paint22_linear_460_9335)"/>
<path d="M349.873 227.962C346.973 223.123 347.493 225.988 343.174 222.468C337.143 225.083 330.808 226.93 324.317 227.965C322.326 228.274 320.322 228.484 318.306 228.596C323.076 245.259 326.286 253.542 335.257 268.368C333.92 270.172 332.471 273.3 332.483 275.548C332.483 277.929 333.313 280.222 334.115 282.461C336.802 289.939 339.487 297.414 342.17 304.888C343.3 308.035 344.604 311.407 347.42 313.213C355.358 328.71 362.355 345.027 370.292 360.523C373.71 367.192 377.16 373.913 381.867 379.758C382.017 379.945 382.167 380.125 382.326 380.308C382.245 379.262 382.173 378.204 382.11 377.176C389.485 384.39 401.174 389.469 412.33 391.687C413.881 390.842 359.43 243.906 349.873 227.962Z" fill="#FE5003"/>
<path d="M309.386 164.525C309.455 164.339 309.522 164.156 309.588 163.969C309.48 163.906 309.379 163.832 309.287 163.747C309.329 164.005 309.347 164.267 309.386 164.525Z" fill="#FCB183"/>
<path d="M407.783 311.212L399.152 297.807C397.601 295.403 396.086 292.923 394.364 290.615C393.161 288.645 391.857 286.739 390.457 284.905C388.437 282.218 386.273 279.576 384.337 277C380.151 271.425 376.379 265.543 372.598 259.686C370.795 256.908 369.039 254.11 367.416 251.231C365.803 248.417 364.387 245.493 363.179 242.482C360.81 236.353 359.681 229.815 359.855 223.247C359.885 221.579 359.984 219.911 360.155 218.252C360.323 216.545 360.507 215.213 360.804 213.506C361.141 211.57 361.559 209.647 362.046 207.741L362.172 207.462C363.975 203.555 365.863 199.687 367.281 195.623C368.726 191.395 369.536 186.976 369.686 182.51C369.869 178.026 369.535 173.542 369.142 169.079C369.094 168.523 369.045 167.97 368.994 167.414C368.925 166.632 368.33 165.71 367.492 165.911C366.466 166.148 365.509 166.618 364.696 167.286C363.882 167.953 363.233 168.799 362.8 169.758C362.518 170.349 362.285 170.962 362.106 171.591C361.231 173.728 360.885 175.967 360.633 178.255L360.444 180.058C360.411 180.334 360.381 180.614 360.345 180.893C360.345 181.002 360.317 181.113 360.302 181.224C360.302 181.239 360.302 181.248 360.302 181.266C360.302 181.341 360.281 181.416 360.269 181.491C360.155 182.265 360.012 183.032 359.84 183.794C360.119 180.728 359.713 177.653 359.344 174.594L357.991 163.407L356.488 150.853C356.472 150.458 356.315 150.081 356.047 149.789C353.621 147.301 350.498 152.332 350.036 153.886C349.757 154.869 349.613 155.885 349.606 156.906C349.155 159.978 349.498 163.083 349.519 166.172C349.519 166.954 349.519 167.738 349.501 168.52C348.554 165.61 347.207 162.824 345.792 160.122C343.838 156.389 342.747 154.824 340.743 151.106C340.484 150.631 339.507 148.752 339.138 148.359C338.317 147.49 336.598 148.786 336.051 149.78C335.303 151.133 334.359 153.934 333.929 154.289C331.101 156.564 330.386 161.201 331.224 165.138C331.636 167.089 332.027 169.046 332.372 171.011C332.549 172.013 332.712 173.015 332.862 174.017C332.898 174.26 332.931 174.501 332.964 174.741C332.982 174.864 333 174.985 333.015 175.105C332.967 174.717 333.015 175.126 333.015 175.189C333.082 175.691 333.142 176.193 333.199 176.692C333.256 177.191 333.298 177.629 333.343 178.101C333.343 178.312 333.343 178.522 333.343 178.735C333.343 180.1 333.283 181.463 333.163 182.826C333.105 183.527 333.033 184.228 332.946 184.93C332.946 185.029 332.877 185.567 332.919 185.152C332.919 185.302 332.877 185.453 332.853 185.603C332.799 185.979 332.739 186.351 332.676 186.727C332.221 189.42 331.552 192.072 330.674 194.659C330.449 195.323 330.208 195.984 329.956 196.636C329.839 196.937 329.718 197.237 329.598 197.538L329.49 197.799L329.472 197.838L329.403 198.004C329.358 198.109 329.316 198.211 329.271 198.304C328.98 198.977 328.687 199.649 328.39 200.318C327.984 198.476 327.621 196.624 327.209 194.782C326.99 193.351 326.766 191.922 326.536 190.493C326.19 188.314 325.634 185.928 323.915 184.386C323.299 183.883 322.586 183.512 321.821 183.296C321.056 183.081 320.254 183.025 319.467 183.132C319.393 183.147 319.322 183.17 319.253 183.202C318.893 183.248 318.561 183.424 318.32 183.696C318.079 183.969 317.945 184.32 317.943 184.683C317.959 189.025 317.972 193.369 317.982 197.715C317.982 202.049 317.931 206.392 318.045 210.723C318.121 214.705 318.808 218.653 320.083 222.426C321.078 225.274 322.313 228.032 323.774 230.67C326.016 235.353 328.257 240.036 330.497 244.718C333.052 250.054 335.604 255.388 338.155 260.719C340.706 266.051 343.247 271.361 345.78 276.649C347.271 279.762 348.76 282.874 350.249 285.984C350.676 287.06 351.097 288.137 351.511 289.215C353.459 294.282 355.331 299.388 357.655 304.299C357.957 304.938 358.27 305.574 358.592 306.205C359.193 308.208 359.762 310.212 360.299 312.216C360.352 312.406 360.441 312.584 360.563 312.74C360.684 312.895 360.835 313.026 361.006 313.123C361.178 313.22 361.367 313.283 361.563 313.307C361.759 313.332 361.958 313.317 362.148 313.265C362.369 313.195 362.574 313.081 362.749 312.928L379.46 313.274L396.389 313.628L405.887 313.827C406.263 313.822 406.623 313.679 406.9 313.424C407.025 313.39 407.143 313.336 407.251 313.265C407.904 312.844 408.228 311.918 407.783 311.212ZM337.671 206.341C337.62 206.244 337.558 206.154 337.488 206.07C337.566 206.076 337.644 206.076 337.722 206.07C337.704 206.149 337.689 206.251 337.671 206.341ZM366.356 274.96H366.431L367.422 276.763C367.053 276.162 366.707 275.561 366.356 274.96ZM396.185 303.25C396.158 303.223 396.14 303.202 396.143 303.196L396.185 303.25ZM321.904 199.017C321.883 199.284 321.865 199.551 321.844 199.816C321.844 199.449 321.844 199.083 321.829 198.713C321.853 198.815 321.88 198.914 321.904 199.017ZM346.48 195.71H346.39C346.391 195.692 346.391 195.674 346.39 195.656H346.477L346.48 195.71ZM333.653 201.012C333.632 200.955 333.611 200.898 333.587 200.844C333.71 200.543 333.827 200.216 333.944 199.9L333.653 201.012ZM343.79 260.93L343.823 261.011C343.776 261.034 343.729 261.06 343.685 261.089L342.943 259.647L343.79 260.93ZM358.075 195.777L358.012 195.759L358.157 195.539L358.075 195.777ZM366.13 309.902C366.34 309.941 366.548 309.974 366.755 309.998L366.966 310.019L366.088 310.001C366.103 309.962 366.118 309.941 366.13 309.895V309.902ZM401.153 310.695L401.201 310.734H400.964L401.153 310.695Z" fill="#FCB183"/>
<path d="M333.712 157.204C334.154 159.17 335.78 162.109 336.532 163.978C339.714 171.883 338.335 187.947 336.174 196.185C337.058 196.14 342.645 185.48 342.185 176.349C342.101 174.681 341.794 171.57 341.262 169.989C339.871 165.833 339.399 162.593 337.256 158.761C334.551 153.919 335.967 150.625 335.483 150.889C334.761 151.283 333.583 156.627 333.712 157.204Z" fill="url(#paint23_linear_460_9335)"/>
<path d="M349.474 169.722C349.654 172.817 349.934 175.919 349.696 179.012C349.459 182.104 348.671 185.221 346.898 187.764C348.737 186.901 350.075 185.185 350.838 183.301C351.602 181.416 351.839 179.366 351.944 177.338C352.206 172.307 351.68 167.281 351.157 162.28C351.07 161.424 349.997 156.062 350.835 152.936C351.385 150.874 349.456 153.672 349.218 160.811C349.122 163.78 349.299 166.755 349.474 169.722Z" fill="url(#paint24_linear_460_9335)"/>
<path d="M360.272 182.249C359.743 185.898 358.348 189.367 356.206 192.368C358.986 189.615 361.616 186.417 362.331 182.57C362.869 179.697 362.292 176.734 362.451 173.812C362.611 170.891 363.332 168.832 366.96 166.04C364.435 166.737 363.185 168.967 362.217 170.548C360.176 173.911 360.813 178.501 360.272 182.249Z" fill="url(#paint25_linear_460_9335)"/>
<path d="M327.425 237.159C324.72 231.909 321.997 226.595 320.608 220.854C317.942 209.809 320.446 198.274 321.152 186.931C321.197 186.177 320.2 183.706 318.285 183.706C316.978 183.706 317.957 203.882 318.036 211.561C318.057 213.584 318.093 215.619 318.495 217.599C318.872 219.25 319.374 220.868 319.998 222.441C322.147 228.302 324.344 234.253 328.062 239.272C327.68 238.662 327.752 237.808 327.425 237.159Z" fill="url(#paint26_linear_460_9335)"/>
<path d="M366.043 199.338C364.393 203.645 362.917 206.413 361.592 210.834C357.507 224.428 361.255 240.616 368.411 252.875C370.383 256.253 372.556 259.508 374.723 262.76L387.409 281.761C391.752 288.265 404.784 307.037 410.166 312.718C408.177 311.588 406.464 313.884 404.492 312.718C403.572 312.177 377.283 276.694 370.368 266.298C366.13 259.926 362.051 253.347 359.641 246.086C354.264 229.901 352.623 220.1 360.341 204.889C365.451 194.803 369.475 186.081 367.296 174.068C365.947 166.635 368.402 165.091 368.67 166.497C369.655 171.667 369.721 179.526 369.7 181.651C369.637 188.422 368.468 193 366.043 199.338Z" fill="#FFC8AB"/>
<path d="M356.615 151.941C358.119 160.501 359.254 169.117 360.017 177.788C360.275 180.737 360.45 183.887 358.995 186.459C359.211 184.244 359.428 182.008 359.184 179.796C358.902 177.226 358.012 174.771 357.255 172.3C355.884 167.833 354.934 163.248 354.418 158.604C354.186 156.528 353.549 153.696 353.967 151.635C354.469 149.146 356.215 149.666 356.615 151.941Z" fill="#FFC8AB"/>
<path d="M349.711 172.995C346.492 162.421 344.28 161.415 340.758 156.089C339.856 154.703 336.057 149.194 337.638 148.22C337.938 148.037 338.876 148.094 339.111 148.35C341.56 151.034 344.698 158.142 345.84 160.555C347.817 164.754 349.711 167.209 349.711 172.995Z" fill="#FFC8AB"/>
<path d="M325.658 187.683C326.142 195.112 326.701 202.815 330.296 209.322C332.571 213.443 336.105 217.326 335.928 222.03C338.462 219.298 336.941 214.543 334.996 211.366C333.052 208.189 331.242 207.504 329.655 204.135C327.431 199.419 327.588 192.54 325.658 187.683Z" fill="#FFC8AB"/>
<path d="M432.272 351.029C421.152 327.306 408.177 304.498 391.698 284.123C392.437 282.125 391.998 279.846 391.046 277.947C390.093 276.047 388.611 274.458 387.165 272.895C382.585 267.948 378.543 263.019 373.965 258.075C373.875 260.611 372.499 262.971 370.695 264.759C368.892 266.547 366.674 267.851 364.48 269.135C359.431 272.089 354.141 275.122 348.304 275.519C346.218 275.663 344.127 275.458 342.047 275.257C344.451 282.939 345.735 291.4 348.536 298.946C349.738 302.183 351.157 305.637 354.09 307.458C362.145 328.797 370.936 350.325 380.574 371.093C381.759 373.645 391.448 394.368 427.683 391.672" fill="#FF6F01"/>
<path d="M429.802 389.86C435.139 383.993 440.42 366.982 434.31 318.061C431.527 295.794 426.673 272.979 423.364 250.783C421.861 240.643 420.25 229.919 413.767 221.972C410.305 217.729 405.676 214.6 400.937 211.856C390.018 205.544 378.939 200.468 366.608 197.817C366.397 199.377 365.328 201.123 364.732 202.572C375.522 206.915 382.934 211.246 392.515 217.84C396.398 220.515 400.188 223.385 403.335 226.892C411.477 235.957 414.621 248.334 417.296 260.22C424.174 290.806 429.747 321.648 434.015 352.745C421.711 328.659 408.402 305.195 391.548 284.039C392.182 281.481 391.584 279.621 390.526 277.211C390.094 276.322 389.549 275.493 388.906 274.743C384.253 268.858 379.148 263.344 373.638 258.252C374.203 260.804 372.98 263.202 371.293 265.198C369.607 267.193 367.365 268.621 365.159 270.006C368.026 274.058 370.479 278.263 373.346 282.329C376.09 286.209 378.978 290.669 378.125 295.349C388.284 310.097 397.577 327.273 408.444 341.507C413.944 348.721 419.565 355.898 423.739 363.943C427.887 371.923 430.562 380.906 429.802 389.86Z" fill="#FD8B1C"/>
<path d="M301.704 216.508C293.628 201.523 294.058 191.683 292.243 189.97C290.629 188.449 287.359 188.699 285.33 188.467C280.822 187.944 276.749 185.651 272.515 184.025C266.056 181.542 258.765 180.635 252.155 182.483C252.12 183.905 252.182 185.328 252.342 186.742C253.051 192.813 255.771 198.53 256.354 204.616C257.962 221.305 243.479 237.739 248.961 253.584C250.89 259.157 255.11 263.716 257.015 269.297C258.599 273.938 258.482 279.002 259.831 283.724C261.181 288.445 264.806 293.173 269.711 293.236C279.307 293.362 290.124 296.052 299.705 295.505C296.517 294.002 295.873 290.657 295.816 287.132C295.684 279.224 298.798 271.684 301.226 264.155C303.655 256.626 311.451 234.611 301.704 216.508Z" fill="url(#paint27_linear_460_9335)"/>
<path d="M181.809 314.857C188.766 294.237 196.04 273.409 208.257 255.397C202.09 265.321 195.738 275.127 189.202 284.814C186.23 289.218 182.383 293.23 181.815 298.456C181.277 303.431 183.395 310.163 181.809 314.857Z" fill="#FE5003"/>
</g>
</g>
</g>
<defs>
<linearGradient id="paint0_linear_460_9335" x1="138.743" y1="166.99" x2="151.038" y2="166.99" gradientUnits="userSpaceOnUse">
<stop offset="0.5" stop-color="#FE8E44"/>
<stop offset="0.52" stop-color="#FE9048"/>
<stop offset="0.62" stop-color="#FE9655"/>
<stop offset="0.74" stop-color="#FE995D"/>
<stop offset="1" stop-color="#FE9A5F"/>
</linearGradient>
<linearGradient id="paint1_linear_460_9335" x1="134.121" y1="176.172" x2="150.362" y2="176.172" gradientUnits="userSpaceOnUse">
<stop offset="0.5" stop-color="#FE8E44"/>
<stop offset="0.52" stop-color="#FE9048"/>
<stop offset="0.62" stop-color="#FE9655"/>
<stop offset="0.74" stop-color="#FE995D"/>
<stop offset="1" stop-color="#FE9A5F"/>
</linearGradient>
<linearGradient id="paint2_linear_460_9335" x1="130.535" y1="182.913" x2="146.142" y2="182.913" gradientUnits="userSpaceOnUse">
<stop offset="0.5" stop-color="#FE8E44"/>
<stop offset="0.52" stop-color="#FE9048"/>
<stop offset="0.62" stop-color="#FE9655"/>
<stop offset="0.74" stop-color="#FE995D"/>
<stop offset="1" stop-color="#FE9A5F"/>
</linearGradient>
<linearGradient id="paint3_linear_460_9335" x1="149.872" y1="134.233" x2="156.775" y2="134.233" gradientUnits="userSpaceOnUse">
<stop offset="0.5" stop-color="#FE8E44"/>
<stop offset="0.52" stop-color="#FE9048"/>
<stop offset="0.62" stop-color="#FE9655"/>
<stop offset="0.74" stop-color="#FE995D"/>
<stop offset="1" stop-color="#FE9A5F"/>
</linearGradient>
<linearGradient id="paint4_linear_460_9335" x1="130.772" y1="191.656" x2="157.488" y2="191.656" gradientUnits="userSpaceOnUse">
<stop offset="0.5" stop-color="#FE8E44"/>
<stop offset="0.52" stop-color="#FE9048"/>
<stop offset="0.62" stop-color="#FE9655"/>
<stop offset="0.74" stop-color="#FE995D"/>
<stop offset="1" stop-color="#FE9A5F"/>
</linearGradient>
<linearGradient id="paint5_linear_460_9335" x1="148.946" y1="168.694" x2="158.371" y2="168.694" gradientUnits="userSpaceOnUse">
<stop offset="0.5" stop-color="#FE8E44"/>
<stop offset="0.52" stop-color="#FE9048"/>
<stop offset="0.62" stop-color="#FE9655"/>
<stop offset="0.74" stop-color="#FE995D"/>
<stop offset="1" stop-color="#FE9A5F"/>
</linearGradient>
<linearGradient id="paint6_linear_460_9335" x1="247.722" y1="173.367" x2="403.449" y2="173.367" gradientUnits="userSpaceOnUse">
<stop offset="0.1" stop-color="#543518"/>
<stop offset="0.69" stop-color="#6D4422"/>
</linearGradient>
<linearGradient id="paint7_linear_460_9335" x1="351.181" y1="191.872" x2="154.411" y2="186.3" gradientUnits="userSpaceOnUse">
<stop offset="0.18" stop-color="#FE995E"/>
<stop offset="0.22" stop-color="#FEA16B"/>
<stop offset="0.28" stop-color="#FFA978"/>
<stop offset="0.35" stop-color="#FFAE80"/>
<stop offset="0.51" stop-color="#FFAF82"/>
<stop offset="0.66" stop-color="#FFAD7E"/>
<stop offset="0.8" stop-color="#FFA673"/>
<stop offset="0.93" stop-color="#FE9B61"/>
<stop offset="0.95" stop-color="#FE995E"/>
</linearGradient>
<linearGradient id="paint8_linear_460_9335" x1="354.417" y1="168.58" x2="231.961" y2="205.77" gradientUnits="userSpaceOnUse">
<stop offset="0.35" stop-color="#FE8E44"/>
<stop offset="0.37" stop-color="#FE9048"/>
<stop offset="0.42" stop-color="#FE9655"/>
<stop offset="0.5" stop-color="#FE995D"/>
<stop offset="0.65" stop-color="#FE9A5F"/>
</linearGradient>
<linearGradient id="paint9_linear_460_9335" x1="262.908" y1="137.688" x2="351.879" y2="131.854" gradientUnits="userSpaceOnUse">
<stop offset="0.08" stop-color="#FE995E"/>
<stop offset="0.13" stop-color="#FEA16B"/>
<stop offset="0.21" stop-color="#FFA978"/>
<stop offset="0.3" stop-color="#FFAE80"/>
<stop offset="0.51" stop-color="#FFAF82"/>
<stop offset="0.66" stop-color="#FFAD7E"/>
<stop offset="0.8" stop-color="#FFA673"/>
<stop offset="0.93" stop-color="#FE9B61"/>
<stop offset="0.95" stop-color="#FE995E"/>
</linearGradient>
<linearGradient id="paint10_linear_460_9335" x1="335.391" y1="174.556" x2="335.381" y2="174.558" gradientUnits="userSpaceOnUse">
<stop stop-color="#FE995E"/>
<stop offset="0.03" stop-color="#FE9657"/>
<stop offset="0.13" stop-color="#FE8E44"/>
<stop offset="0.16" stop-color="#FE9959"/>
<stop offset="0.21" stop-color="#FFA36B"/>
<stop offset="0.27" stop-color="#FFAA78"/>
<stop offset="0.35" stop-color="#FFAE80"/>
<stop offset="0.51" stop-color="#FFAF82"/>
<stop offset="0.66" stop-color="#FFAD7E"/>
<stop offset="0.8" stop-color="#FFA673"/>
<stop offset="0.93" stop-color="#FE9B61"/>
<stop offset="0.95" stop-color="#FE995E"/>
</linearGradient>
<linearGradient id="paint11_linear_460_9335" x1="330.864" y1="188.335" x2="330.731" y2="188.35" gradientUnits="userSpaceOnUse">
<stop stop-color="#FE995E"/>
<stop offset="0.03" stop-color="#FE9657"/>
<stop offset="0.13" stop-color="#FE8E44"/>
<stop offset="0.16" stop-color="#FE9959"/>
<stop offset="0.21" stop-color="#FFA36B"/>
<stop offset="0.27" stop-color="#FFAA78"/>
<stop offset="0.35" stop-color="#FFAE80"/>
<stop offset="0.51" stop-color="#FFAF82"/>
<stop offset="0.66" stop-color="#FFAD7E"/>
<stop offset="0.8" stop-color="#FFA673"/>
<stop offset="0.93" stop-color="#FE9B61"/>
<stop offset="0.95" stop-color="#FE995E"/>
</linearGradient>
<linearGradient id="paint12_linear_460_9335" x1="322.666" y1="184.814" x2="322.567" y2="184.807" gradientUnits="userSpaceOnUse">
<stop stop-color="#FE995E"/>
<stop offset="0.03" stop-color="#FE9657"/>
<stop offset="0.13" stop-color="#FE8E44"/>
<stop offset="0.16" stop-color="#FE9959"/>
<stop offset="0.21" stop-color="#FFA36B"/>
<stop offset="0.27" stop-color="#FFAA78"/>
<stop offset="0.35" stop-color="#FFAE80"/>
<stop offset="0.51" stop-color="#FFAF82"/>
<stop offset="0.66" stop-color="#FFAD7E"/>
<stop offset="0.8" stop-color="#FFA673"/>
<stop offset="0.93" stop-color="#FE9B61"/>
<stop offset="0.95" stop-color="#FE995E"/>
</linearGradient>
<linearGradient id="paint13_linear_460_9335" x1="314.673" y1="200.195" x2="314.439" y2="200.219" gradientUnits="userSpaceOnUse">
<stop stop-color="#FE995E"/>
<stop offset="0.03" stop-color="#FE9657"/>
<stop offset="0.13" stop-color="#FE8E44"/>
<stop offset="0.16" stop-color="#FE9959"/>
<stop offset="0.21" stop-color="#FFA36B"/>
<stop offset="0.27" stop-color="#FFAA78"/>
<stop offset="0.35" stop-color="#FFAE80"/>
<stop offset="0.51" stop-color="#FFAF82"/>
<stop offset="0.66" stop-color="#FFAD7E"/>
<stop offset="0.8" stop-color="#FFA673"/>
<stop offset="0.93" stop-color="#FE9B61"/>
<stop offset="0.95" stop-color="#FE995E"/>
</linearGradient>
<linearGradient id="paint14_linear_460_9335" x1="296.503" y1="99.8248" x2="297.156" y2="99.9303" gradientUnits="userSpaceOnUse">
<stop offset="0.18" stop-color="#FE995E"/>
<stop offset="0.22" stop-color="#FEA16B"/>
<stop offset="0.28" stop-color="#FFA978"/>
<stop offset="0.35" stop-color="#FFAE80"/>
<stop offset="0.51" stop-color="#FFAF82"/>
<stop offset="0.66" stop-color="#FFAD7E"/>
<stop offset="0.8" stop-color="#FFA673"/>
<stop offset="0.93" stop-color="#FE9B61"/>
<stop offset="0.95" stop-color="#FE995E"/>
</linearGradient>
<linearGradient id="paint15_linear_460_9335" x1="317.847" y1="145.534" x2="329.146" y2="160.118" gradientUnits="userSpaceOnUse">
<stop stop-color="#FEA068"/>
<stop offset="0.03" stop-color="#FE9C62"/>
<stop offset="0.13" stop-color="#FF9555"/>
<stop offset="0.26" stop-color="#FF904D"/>
<stop offset="0.53" stop-color="#FF8F4B"/>
</linearGradient>
<linearGradient id="paint16_linear_460_9335" x1="302.285" y1="144.625" x2="284.566" y2="147.392" gradientUnits="userSpaceOnUse">
<stop offset="0.17" stop-color="#FFAF82"/>
<stop offset="0.75" stop-color="#F88F4F"/>
</linearGradient>
<linearGradient id="paint17_linear_460_9335" x1="303.495" y1="131.97" x2="323.166" y2="131.97" gradientUnits="userSpaceOnUse">
<stop stop-color="#FEA068"/>
<stop offset="0.03" stop-color="#FE9C62"/>
<stop offset="0.13" stop-color="#FF9555"/>
<stop offset="0.26" stop-color="#FF904D"/>
<stop offset="0.53" stop-color="#FF8F4B"/>
</linearGradient>
<linearGradient id="paint18_linear_460_9335" x1="348.512" y1="138.727" x2="365.374" y2="141.452" gradientUnits="userSpaceOnUse">
<stop offset="0.18" stop-color="#FE995E"/>
<stop offset="0.22" stop-color="#FEA16B"/>
<stop offset="0.28" stop-color="#FFA978"/>
<stop offset="0.35" stop-color="#FFAE80"/>
<stop offset="0.51" stop-color="#FFAF82"/>
<stop offset="0.66" stop-color="#FFAD7E"/>
<stop offset="0.8" stop-color="#FFA673"/>
<stop offset="0.93" stop-color="#FE9B61"/>
<stop offset="0.95" stop-color="#FE995E"/>
</linearGradient>
<linearGradient id="paint19_linear_460_9335" x1="345.016" y1="141.261" x2="358.935" y2="140.392" gradientUnits="userSpaceOnUse">
<stop stop-color="#F57D34"/>
<stop offset="0.17" stop-color="#FA853F"/>
<stop offset="0.43" stop-color="#FE8A47"/>
<stop offset="0.95" stop-color="#FF8B49"/>
</linearGradient>
<linearGradient id="paint20_linear_460_9335" x1="269.662" y1="135.165" x2="284.206" y2="135.165" gradientUnits="userSpaceOnUse">
<stop stop-color="#FEA068"/>
<stop offset="0.03" stop-color="#FE9C62"/>
<stop offset="0.13" stop-color="#FF9555"/>
<stop offset="0.26" stop-color="#FF904D"/>
<stop offset="0.53" stop-color="#FF8F4B"/>
</linearGradient>
<linearGradient id="paint21_linear_460_9335" x1="264.33" y1="95.0922" x2="358.204" y2="95.0922" gradientUnits="userSpaceOnUse">
<stop offset="0.1" stop-color="#543518"/>
<stop offset="0.69" stop-color="#6D4422"/>
</linearGradient>
<linearGradient id="paint22_linear_460_9335" x1="260.85" y1="98.4284" x2="283.109" y2="98.4284" gradientUnits="userSpaceOnUse">
<stop offset="0.06" stop-color="#6D4422"/>
<stop offset="0.08" stop-color="#6B4321"/>
<stop offset="0.26" stop-color="#5E3B1C"/>
<stop offset="0.5" stop-color="#563619"/>
<stop offset="1" stop-color="#543518"/>
</linearGradient>
<linearGradient id="paint23_linear_460_9335" x1="333.703" y1="173.53" x2="342.215" y2="173.53" gradientUnits="userSpaceOnUse">
<stop offset="0.5" stop-color="#FE8E44"/>
<stop offset="0.52" stop-color="#FE9048"/>
<stop offset="0.62" stop-color="#FE9655"/>
<stop offset="0.74" stop-color="#FE995D"/>
<stop offset="1" stop-color="#FE9A5F"/>
</linearGradient>
<linearGradient id="paint24_linear_460_9335" x1="346.898" y1="170.019" x2="352.013" y2="170.019" gradientUnits="userSpaceOnUse">
<stop offset="0.5" stop-color="#FE8E44"/>
<stop offset="0.52" stop-color="#FE9048"/>
<stop offset="0.62" stop-color="#FE9655"/>
<stop offset="0.74" stop-color="#FE995D"/>
<stop offset="1" stop-color="#FE9A5F"/>
</linearGradient>
<linearGradient id="paint25_linear_460_9335" x1="356.206" y1="179.204" x2="366.975" y2="179.204" gradientUnits="userSpaceOnUse">
<stop offset="0.5" stop-color="#FE8E44"/>
<stop offset="0.52" stop-color="#FE9048"/>
<stop offset="0.62" stop-color="#FE9655"/>
<stop offset="0.74" stop-color="#FE995D"/>
<stop offset="1" stop-color="#FE9A5F"/>
</linearGradient>
<linearGradient id="paint26_linear_460_9335" x1="317.612" y1="211.486" x2="328.062" y2="211.486" gradientUnits="userSpaceOnUse">
<stop offset="0.5" stop-color="#FE8E44"/>
<stop offset="0.52" stop-color="#FE9048"/>
<stop offset="0.62" stop-color="#FE9655"/>
<stop offset="0.74" stop-color="#FE995D"/>
<stop offset="1" stop-color="#FE9A5F"/>
</linearGradient>
<linearGradient id="paint27_linear_460_9335" x1="247.722" y1="238.53" x2="457.675" y2="238.53" gradientUnits="userSpaceOnUse">
<stop offset="0.1" stop-color="#543518"/>
<stop offset="0.69" stop-color="#6D4422"/>
</linearGradient>
<clipPath id="clip0_460_9335">
<rect width="437" height="359.458" fill="white" transform="translate(0 -22.7566)"/>
</clipPath>
</defs>
</svg>
