<svg width="161" height="56" viewBox="0 0 161 56" fill="none" xmlns="http://www.w3.org/2000/svg">
<path d="M28.2604 19.3158L28.11 19.188C20.0996 10.7675 6.88559 15.6553 11.0491 27.5681C12.9019 32.7963 19.5207 38.7429 24.267 41.1568C25.6043 41.8385 26.851 42.3686 27.9842 42.8523L28.1082 42.9019L28.2604 42.9666L28.4103 42.9061L28.5386 42.8523C29.6939 42.3686 30.9597 41.8385 32.3192 41.1568C37.1432 38.7429 43.8754 32.7963 45.7565 27.5681C49.9892 15.6553 36.5562 10.7675 28.4128 19.188L28.2604 19.3158Z" fill="#D74E22"/>
<path d="M20.6909 16.6337C14.8811 15.6933 9.71555 19.7073 12.3668 27.0737C13.3847 29.8624 15.997 32.9445 18.8487 35.4422C16.4496 33.0852 14.3983 30.4144 13.5043 27.9602C10.929 20.8097 15.2312 16.6099 20.6909 16.6337Z" fill="#FEFEFE"/>
<path d="M7.35416 36.7215C8.8659 38.818 10.7107 40.8504 12.8267 42.7525C19.0712 48.3629 25.2837 50.6429 27.933 51.5661C33.2268 53.4059 33.6726 52.5902 31.5677 51.0116C29.3659 49.3595 28.1957 46.9977 29.8838 46.4192L30.2383 46.3288H30.2408L30.3493 46.3135L30.4646 46.3007L30.5861 46.292L30.6626 46.2877L30.7211 46.2859C31.1194 46.2664 31.5258 46.3869 31.9352 46.3807C37.9836 46.2767 44.1917 44.7586 47.6518 39.2779C46.6123 42.3575 43.1429 45.4318 35.4501 47.6293C34.0055 48.0413 33.8403 50.265 38.1211 52.888C40.5072 54.301 41.2354 55.1424 40.9135 55.5862C40.6329 56.0436 39.2716 56.0803 37.4311 55.8968L37.2554 55.8797L37.0766 55.8602C21.4616 54.1371 2.71024 43.268 0.252605 27.2787L0.189696 26.8343L0.157052 26.5604L0.145944 26.4784C-1.17231 15.1825 6.38854 3.99415 24.9163 2.69791C27.8436 2.49311 29.8228 2.61844 30.7711 2.35744C32.1892 1.96672 28.9837 0.0125777 29.0138 0.0125777C36.3244 -0.328006 48.5958 6.309 51.498 12.5381C51.8999 13.2975 52.2027 14.0802 52.35 14.8609C53.2182 19.4747 47.7413 14.5314 45.6943 13.2241C35.1345 6.48143 21.3359 3.99236 11.5412 10.7325C1.43393 17.6887 1.35561 27.8419 7.35416 36.7215Z" fill="#2B2A29"/>
<path d="M47.8047 39.1437C44.9267 43.3992 38.5298 46.1494 30.5866 46.2936C27.9633 46.3414 29.2204 49.031 31.6046 50.8707L31.6459 50.9032L31.7174 50.9594L31.8 51.0199L31.818 51.0328L31.8266 51.0413L31.8328 51.0456L31.9178 51.108L31.9352 51.1233L31.9635 51.1428L31.9918 51.1642L32.0375 51.2009L32.0547 51.2119L32.0917 51.2394L32.1003 51.2486L32.1176 51.2614L32.1288 51.27L32.1331 51.2719L32.2835 51.3886L32.3136 51.4125L32.3181 51.4168L32.3199 51.4186L32.3482 51.4406L32.3895 51.4724L32.4179 51.4943L32.4308 51.5048L32.4574 51.5268L32.4857 51.5482L32.5375 51.5892L32.5658 51.6105V51.613L32.6139 51.6515L32.6183 51.6539L32.6442 51.6754L32.6725 51.6968L32.6965 51.7188L32.7096 51.7291L32.7508 51.7597L32.7748 51.7812L32.818 51.8178L32.8988 51.8845L32.9032 51.8888L32.905 51.8912L32.9598 51.9364L33.0246 51.9927H33.0271L33.0511 52.0141V52.0159L33.1466 52.0985L33.1639 52.1131L33.2793 52.2189L33.2816 52.2214L33.3033 52.2404C34.5542 53.4008 34.5888 54.1449 28.975 52.2121C28.6008 52.085 28.1395 51.9236 27.6068 51.7273H27.6044L27.5612 51.7103L27.2456 51.5935L27.187 51.5696L26.7653 51.41L26.7257 51.3929L26.5149 51.311L26.5106 51.3085L26.4563 51.287L26.0322 51.119L26.0279 51.1165L25.8145 51.0303L25.7776 51.0156L25.6511 50.9637L25.5907 50.938L25.5229 50.9098C25.275 50.806 25.0186 50.6983 24.7571 50.584L24.7245 50.5687L24.6597 50.5406L24.1985 50.3339L24.172 50.3228L24.1677 50.3211L24.0264 50.2563L23.9223 50.2085L23.8828 50.1915L23.7392 50.1248L23.6701 50.0924L23.5351 50.0295C22.789 49.6779 22.006 49.2877 21.1946 48.8518L20.9856 48.74L20.9838 48.7375L20.8229 48.6513L20.7662 48.6189L20.6638 48.5608L20.5011 48.4703C20.2964 48.356 20.0916 48.2392 19.8851 48.1205L19.8481 48.0992L19.6853 48.0019L19.52 47.9054L19.3524 47.8057L19.2697 47.7562L19.2673 47.7543L19.0934 47.6485L18.8628 47.5079L18.8542 47.5036L18.6865 47.3979H18.6846L18.5194 47.2946V47.2927C16.7141 46.1579 14.8496 44.7993 13.0511 43.1834C1.96474 33.2204 -1.13899 19.4615 11.5418 10.7342C12.4987 10.0763 13.3884 9.51379 14.4846 9.05215C13.162 9.55661 10.974 10.5404 8.82712 12.2224C4.99456 15.2318 3.38715 18.9975 2.49317 23.6522C2.59121 23.5489 2.40192 20.6044 3.35882 18.1006C4.23126 15.8225 6.03839 13.7393 6.13451 13.6482C7.42193 12.4816 8.84004 11.4459 10.3561 10.5464C13.0856 8.96784 16.2005 7.79018 19.1957 7.10666C22.1232 6.45921 25.188 6.2072 28.2679 6.37535L27.9854 6.31668C33.1078 6.61691 36.9034 7.78344 40.6965 9.72477C41.9647 10.374 44.6313 11.6427 46.7344 13.351C48.9269 15.1321 50.7347 16.3275 51.4042 16.1636C51.7303 16.0297 51.837 15.1516 51.6521 14.3733C50.1231 7.93271 40.3394 2.04162 32.6226 1.24805C33.0572 1.39473 34.3884 1.85391 35.6265 2.64579C37.56 3.87954 38.9996 5.37204 36.309 4.88477C31.0498 3.92731 26.1037 3.70284 20.9924 4.43841C15.8262 5.39587 11.1219 7.01797 7.28693 9.3952C1.6078 14.0799 -0.775822 20.5914 0.252595 27.2804C0.894378 31.4564 2.6522 35.2844 5.17081 38.6907C11.9567 46.6067 21.945 51.108 32.0116 54.225C36.179 55.2345 42.8347 55.9939 34.8478 51.4058C33.1355 50.422 31.6392 49.1496 31.5788 48.1879C31.5436 47.6162 32.1614 47.2818 33.5406 46.9796C36.888 46.2484 39.287 46.0222 42.3321 44.2919C44.4205 43.1057 46.4452 41.5203 47.8047 39.1437Z" fill="#D74E22"/>
<path d="M5.02721 14.7138C13.4272 6.07941 28.4115 3.71566 40.6705 9.4685C41.7816 9.97713 46.243 12.4038 47.9114 13.9135C49.832 15.6028 50.5126 15.0911 50.4103 13.985C49.9948 10.9523 46.941 7.55898 39.8678 3.89045L39.8893 3.90518C39.1323 3.52547 38.3911 3.17635 37.6839 2.85476C37.3053 2.67379 36.9225 2.54419 37.621 2.98189C40.0983 4.55454 43.0911 6.81487 42.7237 7.51615C42.2496 8.0983 37.6925 5.96498 32.1268 5.27718C20.9943 4.00915 11.3482 5.74129 4.25281 12.4448C0.916038 16.5578 -0.586518 21.8099 0.252606 27.2803C0.894389 31.4563 2.65221 35.2843 5.17083 38.6906C9.23405 43.4315 14.1819 47.163 19.657 50.0642C23.1584 51.9192 28.2394 53.6857 31.4912 54.0849C29.5971 53.3536 24.701 52.2641 20.9727 50.1137C18.4781 48.675 13.3533 45.7115 11.0541 43.5287C2.41485 35.3235 -1.8524 23.0872 5.02721 14.7138Z" fill="#F39314"/>
<path d="M34.2928 6.66661C36.3355 7.25291 38.4368 7.91081 39.1063 8.19148C43.8872 10.1798 46.7104 12.0202 48.9466 13.9479C49.4751 14.494 50.3321 14.7697 49.4448 13.5511C47.2042 11.0406 42.395 8.85545 39.0194 7.65396C37.3948 7.05665 33.8558 6.06008 31.3044 5.70848C21.699 4.22272 13.2879 6.60782 9.28394 9.26752C10.2538 8.80835 20.5572 3.25425 34.2928 6.66661Z" fill="#FFED00"/>
<path d="M1.28533 23.7786C0.358585 39.621 18.7666 51.7368 32.7915 54.377C17.6489 50.6473 1.63988 39.0389 2.5511 23.1941C2.80817 18.6384 4.89402 14.7211 8.23884 11.8872L8.25675 11.8719C4.16711 14.6287 1.57017 18.8047 1.28533 23.7786Z" fill="#FFED00"/>
<path d="M48.0665 10.3755C47.7617 10.0759 47.4029 9.92916 47.261 10.0477C47.1197 10.164 47.2505 10.5051 47.5551 10.8029C47.8598 11.1043 48.2206 11.251 48.3601 11.1324C48.5012 11.0139 48.3687 10.6751 48.0665 10.3755Z" fill="#2B2A29"/>
<path d="M47.9012 10.0106C47.6317 9.74769 47.3461 9.56863 47.1309 9.50625L47.6705 9.91349C48.0974 10.3279 48.3144 10.7853 48.1602 10.9364L47.8772 10.9595C48.106 11.0825 48.2997 11.1173 48.3909 11.0329C48.5451 10.882 48.3273 10.4246 47.9012 10.0106Z" fill="#2B2A29"/>
<path d="M34.6486 33.1861L28.2389 23.1992H42.0245L42.7354 24.9168L43.434 23.1992H78.7746L79.1118 24.304L79.4337 23.1992H102.448V23.6138L102.765 23.1992H117.245L109.13 31.9872L117.646 41.5485H102.907L102.448 40.9297V41.5485H64.6455V32.0428H61.9653V41.5485H50.3265V33.3978L48.3886 36.9782C47.7271 38.1754 46.8683 39.2276 45.7436 40.0279C44.2626 41.0851 42.5572 41.5485 40.739 41.5485H32.9087L32.8476 33.1795L34.6486 33.1861Z" fill="#FEFEFE"/>
<path d="M40.7403 40.7485H35.211H33.7102L33.6991 39.2622L33.6708 35.4854L33.6602 33.982L35.1825 33.9869L36.1204 33.9911L31.178 26.2903L29.7081 24H32.4531H40.4745H41.4838L41.8685 24.9276L42.7435 27.035L43.598 24.9385L43.9784 24H44.9963H51.1323H51.9833H52.6442H54.4976H65.4513H65.9903H66.9626H67.502H77.055H78.1778L78.5014 25.0657L79.1304 27.1231L79.7241 25.0847L80.0416 24H81.1767H91.2476H91.6151H92.7594H93.125H100.13H101.64V25.4925V25.9755L102.71 24.5888L103.163 24H103.907H111.994H115.413L113.11 26.4933L108.044 31.9765L113.651 38.2705L115.856 40.7485H112.518H104.076H103.317L102.86 40.1359L101.64 38.4967V39.2561V40.7485H100.13H93.125H92.7594H91.6151H91.2476H84.9266H83.4172V39.2561V39.187L83.2539 39.6981L82.9191 40.7485H81.8123H76.0308H74.9063L74.5844 39.6768L74.5018 39.4028V40.7485H72.9918H66.9626H65.4513V39.2561V31.2429H61.1594V39.2561V40.7485H59.6477H52.6442H51.1323V39.2561V30.2163L47.687 36.586L47.6809 36.5964C47.1476 37.5606 46.3911 38.581 45.2725 39.379C44.135 40.1898 42.6627 40.7485 40.7403 40.7485Z" fill="#2B2A29"/>
<path d="M40.7402 39.2574H35.211L35.1825 35.48L38.0686 35.4893L38.1211 35.4825L38.171 35.474L38.2166 35.4653L38.2579 35.4568L38.2975 35.4482L38.3319 35.439L38.3646 35.4287L38.3911 35.4177L38.4127 35.4091L38.4558 35.3853L38.4886 35.3657L38.5108 35.3443L38.5255 35.3272L38.5366 35.3119L38.5427 35.2929L38.5477 35.2733L38.5495 35.2385V35.2324V35.2153L38.5477 35.1933L38.5452 35.1676L38.5409 35.1377L38.5384 35.1053L38.5323 35.0703L38.528 35.0337V35.0252L38.5237 35.0141L38.5194 34.9971L38.5108 34.9756L38.4997 34.9499L38.4843 34.9194L38.4694 34.8851L38.4497 34.8484L38.4275 34.8074L38.4016 34.764L38.3733 34.7169L38.343 34.6668L38.3104 34.6155L38.2758 34.5592L38.2389 34.5011L38.1975 34.4364L32.4531 25.4937H40.4744L42.7582 30.9916L44.9963 25.4937H51.9832L46.3583 35.8861C45.4729 37.4904 43.8809 39.2574 40.7402 39.2574ZM93.125 39.2574V25.4937H100.13V30.3961L103.907 25.4937H111.991L106.018 31.9601L112.518 39.2574H104.076L100.13 33.949V39.2574H93.125ZM72.9918 39.2574H66.9626V25.4937H77.0574L79.163 32.396L81.1767 25.4937H91.2476V39.2574H84.9266V29.5939L81.8142 39.2574H76.0285L72.9918 29.5444V39.2574ZM65.9902 29.7517H59.6477V39.2574H52.6442V25.4937H65.9902V29.7517Z" fill="#FEFEFE"/>
<path d="M146.606 43.8979C146.941 43.2638 147.356 42.675 147.824 42.1682C149.564 40.285 151.958 39.4742 154.503 39.4742C156.983 39.4742 159.691 40.3479 160.561 42.8841C160.757 43.4686 160.822 44.0966 160.794 44.711C160.761 45.4423 160.613 46.1411 160.402 46.8339L159.931 48.4731H159.228L158.416 51.4947L157.542 51.7063C155.896 52.1055 154.24 52.2909 152.548 52.2909C150.784 52.2909 148.948 52.0493 147.535 50.9274C147.156 50.6363 146.838 50.3062 146.579 49.9442L146.221 50.3104C144.774 51.6483 142.76 52.0731 140.833 52.0731H131.908L132.161 51.115C131.058 51.7949 129.744 52.0731 128.448 52.0731H118.954L119.387 50.451C117.616 51.7363 115.417 52.2909 113.231 52.2909C111.219 52.2909 108.998 51.8854 107.598 50.3325C107.411 50.1234 107.245 49.9008 107.099 49.6678C105.799 51.2643 103.874 52.2909 101.505 52.2909C100.85 52.2909 100.214 52.2003 99.6347 51.9997L98.56 55.9984H90.5256L92.0023 50.4528C90.2339 51.7387 88.0371 52.2909 85.8533 52.2909C83.9025 52.2909 81.7488 51.9093 80.3461 50.4658L79.213 54.6742H71.6416L72.3395 52.0731H70.5996L69.8992 54.6742H62.3235L63.1454 51.6244C61.673 52.1508 59.9978 52.2909 58.5323 52.2909C56.8509 52.2909 55.3089 52.0945 53.6923 51.6158L52.2853 51.1994L53.773 45.6496L53.9777 45.7401L55.4304 40.3156L56.2898 40.0955C58.0686 39.6406 59.75 39.4742 61.5774 39.4742C63.0128 39.4742 64.6985 39.6596 65.9033 40.5033C66.8583 41.1697 67.3978 42.192 67.3453 43.35C67.3041 44.2819 66.9194 45.1036 66.3231 45.7468L66.4581 46.0079C67.3435 45.095 67.6413 43.9694 67.9897 42.645L68.7505 39.6902H81.8315L81.1903 42.1016L81.6052 41.7176C83.461 40.1193 85.8885 39.4742 88.3133 39.4742C90.634 39.4742 93.0356 40.1517 94.2644 41.9762L94.8735 39.6902H102.358C102.906 39.5452 103.484 39.4742 104.082 39.4742C106.277 39.4742 107.856 40.4489 108.559 42.1101L108.984 41.7176C110.841 40.1193 113.266 39.4742 115.694 39.4742C118.012 39.4742 120.413 40.1517 121.642 41.9762L122.251 39.6902H130.791C131.508 39.6902 132.204 39.7414 132.888 39.9726C133.712 40.2508 134.347 40.7534 134.721 41.4241L135.18 39.6902H143.239L142.466 42.5931C143.928 42.6127 145.503 42.9019 146.606 43.8979ZM55.6653 46.4885L55.8891 45.6368L54.7299 46.0764L55.4064 46.3784L55.6653 46.4885Z" fill="#2B2A29"/>
<path d="M57.1802 46.6867H58.8332C59.1051 46.6867 60.1168 46.6867 60.0842 47.4204C60.067 47.7977 59.7426 48.4965 58.2265 48.4965C57.2739 48.4965 55.9816 48.2807 54.7812 47.7438L54.1263 50.181C55.9514 50.7203 57.4046 50.7912 58.5329 50.7912C64.7145 50.7912 65.1868 48.0844 65.217 47.4027C65.2566 46.5252 64.6689 45.7377 63.5425 45.7011L63.5468 45.6473C64.8212 45.3795 65.7788 44.4287 65.8286 43.283C65.8761 42.2087 65.0561 40.9731 61.5762 40.9731C59.9232 40.9731 58.4225 41.0984 56.6715 41.5446L56.0168 43.9818C57.0063 43.6063 58.266 43.2659 59.6076 43.2659C59.9973 43.2659 61.104 43.283 61.0694 44.0356C61.0608 44.2685 60.9147 44.8946 59.5533 44.8946H57.6481L57.1802 46.6867ZM79.8622 41.1864H69.9288L69.4565 43.0158C68.9411 44.9851 68.441 46.6157 66.5377 47.8863H65.7196L64.2952 53.1751H68.7321L69.4306 50.5735H74.3113L73.6133 53.1751H78.0458L79.4663 47.8863H78.0871L79.8622 41.1864ZM73.6547 47.8863H70.9701C72.1669 46.812 72.5603 45.8087 72.9345 44.411L73.0739 43.8742H74.7071L73.6547 47.8863ZM88.3121 40.9731C83.3136 40.9731 80.6711 43.9818 80.541 46.9368C80.4843 48.192 80.9911 50.7912 85.8502 50.7912C90.5175 50.7912 93.424 47.9939 93.5585 44.9674C93.6478 42.979 92.3365 40.9731 88.3121 40.9731ZM87.6469 43.6584C88.3664 43.6584 88.3775 44.2863 88.3646 44.5559C88.33 45.3428 88.0118 46.3828 87.7295 47.0272C87.5334 47.4932 87.177 48.1015 86.418 48.1015C86.1067 48.1015 85.7066 47.9401 85.7368 47.2242C85.772 46.4708 86.1875 44.9851 86.5266 44.411C86.6721 44.1609 87.0051 43.6584 87.6469 43.6584ZM100.591 41.1864H96.0401L92.493 54.5012H97.3891L98.7678 49.3745C99.3511 50.6316 100.687 50.7912 101.502 50.7912C104.671 50.7912 107.273 48.3345 107.44 44.5364C107.593 41.1521 104.956 40.9731 104.079 40.9731C102.603 40.9731 101.237 41.5275 100.247 42.7804H100.169L100.591 41.1864ZM101.261 44.0185C101.513 44.0185 102.172 44.09 102.129 45.056C102.105 45.5935 101.894 46.4171 101.615 46.9563C101.191 47.7806 100.637 47.9939 100.208 47.9939C99.8597 47.9939 99.3226 47.8343 99.3597 46.9563C99.3855 46.3828 99.5748 45.6296 99.8726 45.056C100.278 44.2685 100.795 44.0185 101.261 44.0185ZM115.686 40.9731C110.69 40.9731 108.049 43.9818 107.916 46.9368C107.86 48.192 108.366 50.7912 113.228 50.7912C117.893 50.7912 120.799 47.9939 120.934 44.9674C121.024 42.979 119.714 40.9731 115.686 40.9731ZM115.022 43.6584C115.742 43.6584 115.753 44.2863 115.742 44.5559C115.708 45.3428 115.388 46.3828 115.107 47.0272C114.909 47.4932 114.552 48.1015 113.796 48.1015C113.483 48.1015 113.082 47.9401 113.115 47.2242C113.15 46.4708 113.563 44.9851 113.902 44.411C114.048 44.1609 114.383 43.6584 115.022 43.6584ZM123.416 41.1864L120.917 50.5735H128.443C131.338 50.5735 132.83 48.9428 132.895 47.5109C132.941 46.4708 132.116 45.772 130.994 45.6662L130.996 45.6124C132.804 45.2003 133.534 44.0705 133.58 43.0499C133.663 41.1864 131.486 41.1864 130.785 41.1864H123.416ZM127.351 43.1949H127.953C128.306 43.1949 129.099 43.212 129.071 43.8571C129.061 44.1439 128.873 44.8231 127.512 44.8231H126.909L127.351 43.1949ZM126.417 46.7039H127.118C127.544 46.7039 128.34 46.7039 128.308 47.4761C128.286 47.9401 127.929 48.5674 126.626 48.5674H125.926L126.417 46.7039ZM141.265 41.1864H136.347L133.867 50.5735H140.828C145.163 50.5735 146.261 48.192 146.32 46.8658C146.361 45.9536 145.996 44.09 142.302 44.09C141.854 44.09 140.94 44.1439 140.473 44.178L141.265 41.1864ZM139.255 48.3541L139.816 46.2404H140.34C141.097 46.2404 141.391 46.65 141.371 47.0988C141.352 47.528 141.023 48.3541 139.662 48.3541H139.255ZM158.779 46.9734L158.94 46.4171C159.122 45.8087 159.246 45.2352 159.27 44.6439C159.292 44.2148 159.253 43.7659 159.116 43.3544C158.859 42.6037 157.9 40.9731 154.496 40.9731C149.247 40.9731 147.344 44.8427 147.248 47.0084C147.187 48.3541 147.773 49.2125 148.467 49.7499C149.667 50.7031 151.394 50.7912 152.543 50.7912C153.922 50.7912 155.464 50.6664 157.176 50.2525L157.826 47.8147C156.703 48.1559 155.116 48.4598 153.95 48.4598C151.888 48.4598 151.894 47.4393 151.973 46.9734H158.779ZM152.488 45.056L152.534 44.877C152.934 43.3196 153.891 43.212 154.202 43.212C154.611 43.212 155.186 43.3912 155.146 44.3034L155.063 44.8598L155.016 45.056H152.488Z" fill="#F39314"/>
</svg>
